<?xml version="1.0" encoding="UTF-8" standalone="no"?>
<!-- Created with Inkscape (http://www.inkscape.org/) -->

<svg
   xmlns:dc="http://purl.org/dc/elements/1.1/"
   xmlns:cc="http://creativecommons.org/ns#"
   xmlns:rdf="http://www.w3.org/1999/02/22-rdf-syntax-ns#"
   xmlns:svg="http://www.w3.org/2000/svg"
   xmlns="http://www.w3.org/2000/svg"
   xmlns:xlink="http://www.w3.org/1999/xlink"
   xmlns:sodipodi="http://sodipodi.sourceforge.net/DTD/sodipodi-0.dtd"
   xmlns:inkscape="http://www.inkscape.org/namespaces/inkscape"
   id="svg7145"
   sodipodi:docname="ic_launcher.svg"
   viewBox="0 0 1307.1 632.68"
   sodipodi:version="0.32"
   version="1.0"
   inkscape:output_extension="org.inkscape.output.svg.inkscape"
   inkscape:version="0.91 r13725"
   inkscape:export-filename="C:\NeatData\Data1(CurrentWorx)\Copestone\20_Client_for_TK102_GPS_Tracker\ic_launcher.png"
   inkscape:export-xdpi="172.24881"
   inkscape:export-ydpi="172.24881">
  <defs
     id="defs7147">
    <linearGradient
       id="light100to0-690-164">
      <stop
         id="stop66219"
         style="stop-color:#e2e2e2"
         offset="0" />
      <stop
         id="stop66221"
         style="stop-color:#e2e2e2;stop-opacity:0"
         offset="1" />
    </linearGradient>
    <linearGradient
       id="bludraktowhite-293-632"
       x1="33.332"
       gradientUnits="userSpaceOnUse"
       y1="10.305"
       x2="33.332"
       y2="91.408">
      <stop
         id="stop66195"
         style="stop-color:rgb(255,255,255)"
         offset="0" />
      <stop
         id="stop66197"
         style="stop-color:rgb(84,84,119)"
         offset="1" />
    </linearGradient>
    <linearGradient
       id="light90to0-992-478">
      <stop
         id="stop66163"
         style="stop-color:#e2e2e2;stop-opacity:.90196"
         offset="0" />
      <stop
         id="stop66165"
         style="stop-color:#e2e2e2;stop-opacity:0"
         offset="1" />
    </linearGradient>
    <linearGradient
       id="orangetoyelow-637-689">
      <stop
         id="stop66149"
         style="stop-color:#969696"
         offset="0" />
      <stop
         id="stop66151"
         style="stop-color:#e2e2e2"
         offset="1" />
    </linearGradient>
    <linearGradient
       id="linearGradient85024"
       y2="425.4"
       xlink:href="#linearGradient2555"
       gradientUnits="userSpaceOnUse"
       x2="-395.85"
       gradientTransform="matrix(-1.206,0,0,1.206,-380.93602,-856.23118)"
       y1="274.71"
       x1="-344.15"
       inkscape:collect="always" />
    <linearGradient
       id="light100to0">
      <stop
         id="stop2764"
         style="stop-color:#ffffff"
         offset="0" />
      <stop
         id="stop2765"
         style="stop-color:#ffffff;stop-opacity:0"
         offset="1" />
    </linearGradient>
    <linearGradient
       id="linearGradient49770">
      <stop
         id="stop49772"
         style="stop-color:#959595"
         offset="0" />
      <stop
         id="stop49774"
         style="stop-color:black"
         offset="1" />
    </linearGradient>
    <linearGradient
       id="light90to0">
      <stop
         id="stop1890"
         style="stop-color:#ffffff;stop-opacity:.90196"
         offset="0" />
      <stop
         id="stop1892"
         style="stop-color:#ffffff;stop-opacity:0"
         offset="1" />
    </linearGradient>
    <linearGradient
       id="linearGradient2555"
       inkscape:collect="always">
      <stop
         id="stop2557"
         style="stop-color:#ffffff"
         offset="0" />
      <stop
         id="stop2559"
         style="stop-color:#ffffff;stop-opacity:0"
         offset="1" />
    </linearGradient>
  </defs>
  <sodipodi:namedview
     id="base"
     bordercolor="#666666"
     inkscape:pageshadow="2"
     guidetolerance="10"
     pagecolor="#ffffff"
     gridtolerance="10000"
     inkscape:window-height="1178"
     inkscape:zoom="0.24748737"
     objecttolerance="10"
     showgrid="false"
     borderopacity="1.0"
     inkscape:current-layer="layer1"
     inkscape:cx="-1203.6045"
     inkscape:cy="835.59621"
     inkscape:window-y="-8"
     inkscape:window-x="1912"
     inkscape:window-width="1920"
     inkscape:pageopacity="0.0"
     inkscape:document-units="px"
     inkscape:window-maximized="1" />
  <g
     id="layer1"
     inkscape:label="Layer 1"
     inkscape:groupmode="layer"
     transform="translate(282.6 95.103)">
    <rect
       id="rect84600"
       style="fill:#000a9e;fill-opacity:1;fill-rule:evenodd"
       rx="72.361"
       transform="scale(-1,1)"
       inkscape:export-ydpi="10.850266"
       inkscape:export-filename="/home/ben/Documents/programmation/javascript/google_map/images/carte.png"
       ry="72.361"
       height="265.42999"
       width="267.60999"
       inkscape:export-xdpi="10.850266"
       y="-482.38617"
       x="-235.17397" />
    <path
       id="path84602"
       style="fill:url(#linearGradient85024);fill-rule:evenodd"
       d="m 164.47398,-471.03918 -126.209999,0 c -33.3999998,0 -60.299,26.895 -60.299,60.301 l 0,122.14 c 1.082,26.07 5.241,9.59 13.1580002,-19.289 9.20100005,-33.562 39.1709998,-62.896 75.6609998,-84.88 27.86,-16.78 59.029999,-27.495 115.789999,-28.514 32.18,-0.578 29.34,-41.435 -18.1,-49.755 z"
       inkscape:export-ydpi="10.850266"
       sodipodi:nodetypes="ccccsssc"
       inkscape:export-filename="/home/ben/Documents/programmation/javascript/google_map/images/carte.png"
       inkscape:export-xdpi="10.850266"
       inkscape:connector-curvature="0" />
    <path
       id="path86369"
       style="fill:#ffffff"
       d="m 92.393981,-258.82118 c -5.65,-0.64 -12.31,-1.96 -12.64,-2.51 -0.21,-0.33 0.71,-0.81 2.04,-1.07 3.17,-0.62 3.23,-0.62 8.08,-0.02 2.76,0.34 4.35,0.23 4.69,-0.31 0.35,-0.58 1.37,-0.47 3.46,0.36 2.639999,1.07 4.709999,1.12 8.149999,0.2 0.65,-0.17 1.02,0.13 0.9,0.73 -0.16,0.73 0.18,0.86 1.11,0.46 0.74,-0.31 2.34,-0.51 3.57,-0.44 l 2.23,0.12 -1.79,-1.27 -1.8,-1.28 1.71,-0.63 c 1.09,-0.41 2.08,-0.32 2.74,0.23 1.33,1.11 10.49,0.32 14.17,-1.23 1.46,-0.61 3.7,-1.13 4.98,-1.14 1.28,-0.02 3.16,-0.51 4.19,-1.1 2.07,-1.2 3.72,-1.44 3.72,-0.55 0,0.68 -7.3,3.96 -13.77,6.19 -8.79,3.03 -24.88,4.5 -35.739999,3.26 z m 19.889999,-12.05 c -2.68,-1.1 -4.17,-3.78 -2.96,-5.3 0.53,-0.66 0.45,-0.94 -0.27,-0.95 -0.72,0 -0.77,-0.17 -0.17,-0.56 0.48,-0.3 1.09,-2.24 1.37,-4.3 0.27,-2.07 0.94,-5.28 1.47,-7.13 0.54,-1.86 0.97,-4.06 0.96,-4.88 -0.01,-1.59 0.64,-6.6 1.41,-10.76 0.61,-3.332 -0.86,-5.916 -4.4,-7.735 -1.57,-0.807 -3.03,-2.043 -3.26,-2.747 -1.1,-3.496 -3.68,-8.73 -5.73,-11.655 -1.999999,-2.855 -0.64,-8.956 2.67,-11.935 2,-1.798 2.34,-2.584 2.14,-4.926 -0.13,-1.533 -0.5,-2.956 -0.84,-3.163 -0.33,-0.206 -0.63,-0.713 -0.67,-1.125 -0.04,-0.413 -0.49,-0.751 -1,-0.751 -0.51,0 -0.85,0.413 -0.75,0.918 0.23,1.191 -4.229999,0.359 -5.629999,-1.049 -0.54,-0.547 -1.29,-0.995 -1.68,-0.995 -0.38,0 -0.69,-0.448 -0.69,-0.995 0,-1.608 -3.14,-4.054 -5.95,-4.634 -1.44,-0.296 -3.34,-1.217 -4.24,-2.048 -1.09,-1.012 -2.88,-1.577 -5.41,-1.715 -3.88,-0.211 -7.86,-2.126 -7.08,-3.401 0.24,-0.396 -0.57,-0.718 -1.8,-0.718 -2.79,0 -3.65,-1.258 -1.83,-2.688 0.75,-0.597 1.01,-0.997 0.56,-0.888 -0.67,0.166 -3.53,-2.765 -5.67,-5.806 -0.29,-0.413 -1.54,-1.933 -2.79,-3.378 l -2.26,-2.627 1.17,2.44 c 0.64,1.341 1.47,2.439 1.83,2.439 0.37,0 0.49,0.472 0.27,1.05 -0.22,0.577 -0.04,1.273 0.4,1.546 0.43,0.272 0.79,1.034 0.79,1.693 0,1.043 -0.19,1.022 -1.49,-0.161 -0.82,-0.747 -1.49,-1.823 -1.49,-2.391 0,-0.569 -0.51,-1.232 -1.14,-1.474 -0.69,-0.269 -0.97,-0.966 -0.71,-1.79 0.23,-0.742 0.08,-1.566 -0.35,-1.832 -0.43,-0.265 -0.78,-1.089 -0.78,-1.83 0,-0.741 -0.8,-2.225 -1.79,-3.298 -2.73,-2.977 -3.49,-7.784 -1.85,-11.846 1.5,-3.73 1.79,-6.6883 0.65,-6.6883 -0.43,0 -0.56,-0.7816 -0.31,-1.7946 0.25,-0.987 0.09,-2.0203 -0.36,-2.296 -0.44,-0.27752 -0.8,0.0211 -0.8,0.66858 0,0.64362 -0.35,1.1702 -0.77,1.1702 -0.43,0 -0.71,-0.76 -0.63,-1.6888 0.27,-3.205 -0.1,-4.3159 -1.42,-4.3159 -1.69,0 -6.94,2.6762 -7.71,3.9292 -0.32,0.52228 -0.85,0.95378 -1.17,0.95868 -0.32,0.005 -2.13,1.0894 -4.03,2.4098 -1.89,1.3204 -3.64,2.2024 -3.88,1.96 -0.24,-0.2424 0.64,-1.1698 1.95,-2.0609 1.31,-0.8911 2.5,-2.2838 2.64,-3.095 0.14,-0.81112 1.48,-2.5718 2.98,-3.9125 1.5,-1.3407 2.1,-2.2157 1.33,-1.9445 -2.14,0.751 -1.13,-1.4218 1.19,-2.5629 1.05,-0.5173 2.11,-1.7001 2.36,-2.6271 0.59,-2.23 5.73,-5.808 8.39,-5.841 1.17,-0.015 4.13,-0.457 6.59,-0.984 2.45,-0.526 5.7,-0.872 7.2,-0.77 2.26,0.154 2.73,-0.056 2.64,-1.179 -0.08,-1.108 -0.34,-1.211 -1.4,-0.545 -0.72,0.451 -1.54,0.588 -1.82,0.304 -0.71,-0.718 1.13,-2.805 2.48,-2.805 0.65,0 0.94,-0.44 0.7,-1.064 -0.27,-0.701 0.53,-1.48 2.34,-2.283 1.51,-0.67 2.07,-1.064 1.26,-0.876 -1.97,0.451 -6.37,2.007 -8,2.823 -0.71,0.357 -1.96,0.65 -2.79,0.65 -0.82,0 -1.5,0.297 -1.5,0.661 0,0.653 -5.3,2.8 -8.93,3.615 -1.61,0.362 -1.51,0.176 0.74,-1.387 8.06,-5.587 15.23,-8.663 26.28,-11.278 5.66,-1.34 9.18,-1.627 20.25,-1.647 13.359999,-0.023 23.379999,1.186 21.179999,2.556 -0.55,0.344 -1.29,0.45 -1.63,0.237 -0.34,-0.214 -4.1,-0.49 -8.35,-0.614 -6.49,-0.19 -7.67,-0.052 -7.32,0.856 0.22,0.595 0.83,0.92 1.34,0.721 1.28,-0.494 7.29,2.669 11.18,5.882 1.77,1.457 3.49,2.649 3.84,2.649 0.34,0 1.06,0.703 1.59,1.561 0.84,1.366 0.78,1.608 -0.49,1.944 -1.92,0.506 -2.44,3.556 -1.21,7.066 0.54,1.5425 0.81,2.9679 0.62,3.1677 -0.68,0.6862 -5.08,-2.0125 -7.95,-4.8757 -1.58,-1.577 -3.23,-2.644 -3.67,-2.371 -0.44,0.274 -0.58,0.146 -0.32,-0.286 0.27,-0.43 -0.03,-1.211 -0.66,-1.737 -0.63,-0.526 -0.97,-1.409 -0.76,-1.962 0.22,-0.565 -0.11,-1.005 -0.73,-1.005 -0.62,0 -1.31,-0.507 -1.55,-1.126 -0.23,-0.62 -0.78,-1.126 -1.22,-1.126 -0.44,0 -1.34,-0.496 -2,-1.102 -0.89,-0.813 -1.789999,-0.929 -3.409999,-0.44 -1.21,0.364 -1.75,0.691 -1.21,0.727 1.6,0.105 6.929999,5.986 6.699999,7.398 -0.11,0.714 0.01,1.652 0.28,2.085 0.27,0.432 0.19,1.276 -0.18,1.876 -0.57,0.926 -1.15,0.836 -3.859999,-0.601 -1.75,-0.93 -3.75,-1.69 -4.44,-1.689 -1.69,0.003 -2.47,-1.4 -1.08,-1.937 0.61,-0.236 1.29,-0.931 1.53,-1.545 0.32,-0.839 0.05,-0.999 -1.06,-0.642 -1.09,0.349 -1.49,0.132 -1.49,-0.827 0,-0.716 -0.22,-1.079 -0.49,-0.808 -0.26,0.272 -0.85,0.188 -1.3,-0.186 -0.56,-0.469 -0.81,0.131 -0.8,1.941 0,1.714 0.46,2.877 1.32,3.36 0.72,0.406 1.15,0.995 0.96,1.307 -0.19,0.313 0.55,0.437 1.66,0.275 1.35,-0.198 3.1,0.449 5.35,1.987 2.589999,1.7586 3.409999,2.029 3.599999,1.1805 0.36,-1.6785 1.06,-1.3635 4.23,1.9106 1.6,1.6562 3.24,2.9016 3.64,2.7678 0.84,-0.2823 2.78,1.5452 4.58,4.3037 1.25,1.9301 3.07,2.7535 2.18,0.98848 -0.26,-0.516 0.22,-0.1409 1.07,0.83372 0.86,0.9746 1.55,2.3257 1.54,3.0024 -0.01,1.0686 -0.11,1.0823 -0.73,0.1045 -0.65,-1.0008 -0.73,-1.0008 -0.8,0 -0.04,0.7727 -0.18,0.8315 -0.44,0.1877 -0.6,-1.5 -3.83,-1.1734 -3.71,0.3749 0.07,0.8315 -0.51,1.4012 -1.57,1.5534 -0.92,0.1321 -1.67,0.5989 -1.67,1.0374 0,0.4969 -1.13,0.6455 -2.98,0.3945 -2.43,-0.3288 -2.98,-0.1748 -3,0.8394 0,0.6832 -0.67,2.087 -1.47,3.119 -0.8,1.032 -1.46,2.34 -1.47,2.906 -0.01,0.873 -0.21,0.873 -1.31,0 -1.189999,-0.955 -1.189999,-0.879 0.03,1.055 1.46,2.297 1.21,3.056 -1.869999,5.666 -2.1,1.782 -2.78,4.856 -1.29,5.788 1.1,0.682 2.299999,4.069 1.76,4.95 -0.65,1.053 -2.61,-0.81 -3.75,-3.564 -0.7,-1.702 -1.61,-2.469 -3.33,-2.815 -3.65,-0.738 -5.15,-0.57 -5.15,0.58 0,0.679 -0.52,0.918 -1.46,0.671 -1.68,-0.445 -6.21,2.156 -7.84,4.507 -1.44,2.064 -1.42,4.538 0.05,7.668 1.38,2.913 2.49,3.488 5.55,2.87 1.53,-0.309 2.37,-1.01 2.68,-2.231 0.24,-0.979 0.82,-1.806 1.29,-1.838 0.47,-0.032 1.43,-0.17 2.15,-0.308 1.94,-0.376 2.25,0.794 0.91,3.415 -0.66,1.289 -1.01,2.535 -0.78,2.768 0.23,0.233 0.03,0.891 -0.44,1.462 -0.7,0.86 -0.37,0.984 1.96,0.726 4.61,-0.512 5.52,0.022 5.48,3.214 -0.08,5.387 1.66,7.63 4.649999,6.015 0.99,-0.533 1.89,-0.532 2.88,0.003 1.91,1.033 2,1.015 3.63,-0.746 0.77,-0.838 2.04,-1.653 2.82,-1.812 0.78,-0.159 2.05,-0.544 2.84,-0.857 1,-0.398 1.26,-0.305 0.89,0.311 -0.3,0.483 -0.19,0.878 0.25,0.878 0.43,0 0.78,-0.317 0.78,-0.706 0,-0.388 0.9,-0.237 2,0.337 1.09,0.574 2.32,0.839 2.72,0.59 0.4,-0.249 0.51,-0.101 0.25,0.329 -0.27,0.429 0.27,0.983 1.18,1.231 2.35,0.633 2.94,0.578 2.45,-0.228 -0.24,-0.384 -0.04,-0.943 0.44,-1.242 0.54,-0.339 0.67,-0.217 0.34,0.324 -0.49,0.806 0.54,1.164 3.09,1.068 0.52,-0.019 0.94,0.519 0.95,1.195 0.02,1.722 5.09,5.764 7.95,6.333 2.88,0.573 5.44,2.643 5.44,4.402 0,0.71 0.35,1.513 0.79,1.785 0.52,0.323 0.33,1.052 -0.54,2.108 -0.73,0.888 -0.86,1.196 -0.28,0.685 0.85,-0.754 1.94,-0.436 5.77,1.689 2.6,1.44 5.34,2.618 6.08,2.618 0.74,0 1.93,0.653 2.65,1.451 0.71,0.797 1.77,1.268 2.35,1.045 0.75,-0.293 1.04,0.223 1.04,1.866 0,1.601 -0.97,3.425 -3.31,6.183 -1.82,2.152 -3.54,4.966 -3.82,6.254 -0.76,3.551 -4.1,7.838 -6.83,8.768 -1.33,0.45 -2.42,1.29 -2.42,1.87 0,0.58 -0.92,1.65 -2.04,2.38 -1.13,0.73 -2.65,2.08 -3.39,3 -3.66,4.56 -7.64,7.76 -9.3,7.46 -1.29,-0.22 -1.65,0.02 -1.49,0.99 0.23,1.38 -1.37,3.77 -2.53,3.77 -0.39,0 -2.52,1.58 -4.75,3.52 -2.68,2.34 -3.74,3.71 -3.15,4.08 0.62,0.39 0.35,1.01 -0.93,2.1 -1.71,1.46 -1.74,1.62 -0.52,2.58 0.72,0.56 1.3,1.2 1.3,1.41 0,0.95 -2.81,0.98 -5.05,0.05 z m -3,-129.09 c -0.53,-0.2168 -1.18,-0.1901 -1.42,0.0593 -0.25,0.2494 0.19,0.4269 0.97,0.3942 0.87,-0.0359 1.05,-0.2138 0.45,-0.4535 z m 5.05,-3.4043 c 0.01,-0.2967 -0.48,-0.3449 -1.09,-0.1073 -0.65,0.2525 -1.12,0.009 -1.13,-0.5866 -0.01,-0.82982 -0.13,-0.82282 -0.68,0.0383 -0.4,0.6409 -0.34,1.7648 0.15,2.8559 l 0.82,1.7991 0.95,-1.73 c 0.52,-0.9515 0.96,-1.9727 0.98,-2.2694 z m -23.799999,2.1107 c 0,-0.15 -0.76,-0.7786 -1.7,-1.3969 -1.53,-1.0084 -1.86,-0.995 -3.24,0.1306 -1.49,1.2204 -1.45,1.2587 1.7,1.3969 1.78,0.0781 3.24,0.0194 3.24,-0.1306 z m -1.79,-3.8638 c -1.35,-0.99598 -1.35,-1.0677 -0.07,-1.5642 0.74,-0.2862 2.6,-0.182 4.14,0.2315 2.37,0.63768 2.73,0.58098 2.36,-0.3741 -0.27,-0.7287 -0.12,-0.9357 0.44,-0.5867 0.48,0.2964 1.45,0.1932 2.17,-0.2295 1.19,-0.6978 1.17,-0.7704 -0.27,-0.7911 -1.21,-0.0175 -1.58,-0.4911 -1.58,-2.0284 0,-1.1031 -0.63,-2.4687 -1.4,-3.0347 -0.76,-0.566 -1.31,-1.1834 -1.21,-1.3721 0.52,-0.9494 0.07,-1.8444 -0.93,-1.8444 -0.61,0 -1.11,-0.366 -1.11,-0.813 0,-0.447 -0.42,-0.662 -0.93,-0.477 -0.52,0.185 -1.53,0.028 -2.26,-0.348 -1.02,-0.533 -1.74,-0.174 -3.23,1.604 -1.05,1.26 -2.18,2.1222 -2.51,1.9171 -0.33,-0.2052 -0.79,0.1276 -1.02,0.7396 -0.23,0.6118 -0.18,1.0376 0.11,0.9461 0.29,-0.0916 1.47,0.7872 2.61,1.9529 1.3,1.3261 2.53,1.9474 3.27,1.6596 1.53,-0.594 4.11,0.2237 3.55,1.1295 -0.23,0.3831 -0.93,0.6966 -1.54,0.6966 -0.66,0 -0.9,-0.3587 -0.59,-0.8666 0.33,-0.5412 0.2,-0.6627 -0.34,-0.3234 -0.48,0.2986 -0.68,0.8575 -0.44,1.2418 0.23,0.3844 0.07,0.6988 -0.36,0.6988 -0.44,0 -0.79,-0.3378 -0.79,-0.7506 0,-1.3206 -2.79,-0.8024 -3.15,0.5851 -0.41,1.5774 1.32,3.5742 2.06,2.3733 0.33,-0.53892 0.76,-0.53862 1.41,9.8e-4 0.51,0.4293 1.15,0.5583 1.42,0.2866 0.27,-0.2717 0.49,-0.0435 0.49,0.50692 0,0.5505 0.25,0.748 0.56,0.4391 0.31,-0.309 -0.08,-1.0315 -0.86,-1.6057 z m 5.51,-4.0432 c 0,-0.3885 0.33,-0.9127 0.74,-1.1649 0.42,-0.263 0.55,0.0383 0.29,0.7063 -0.49,1.3003 -1.03,1.5383 -1.03,0.4586 z m -9.35,-1.897 c -0.79,-0.6061 -1.05,-1.1127 -0.57,-1.1258 1.41,-0.0389 3.22,0.8357 3.22,1.5575 0,0.9838 -1.01,0.8194 -2.65,-0.4317 z m 24.989999,7.3209 c 0,-0.0887 -0.64,-0.50382 -1.41,-0.92252 -1.01,-0.5428 -1.63,-0.4965 -2.17,0.1613 -0.57,0.69372 -0.22,0.92252 1.41,0.92252 1.19,0 2.17,-0.0727 2.17,-0.1613 z m -11.169999,-1.7152 c 0,-0.4128 -0.52,-0.75068 -1.16,-0.75068 -0.64,0 -0.95,0.33788 -0.7,0.75068 0.25,0.4128 0.77,0.7505 1.16,0.7505 0.39,0 0.7,-0.3377 0.7,-0.7505 z m 2.609999,0 c -0.26,-0.4128 -0.61,-0.75068 -0.79,-0.75068 -0.18,0 -0.33,0.33788 -0.33,0.75068 0,0.4128 0.35,0.7505 0.79,0.7505 0.43,0 0.58,-0.3377 0.33,-0.7505 z m -24.199999,-3.778 c -0.94,-0.6365 -0.8,-1.0344 0.93,-2.5796 1.13,-1.0049 2.05,-2.2455 2.05,-2.7571 0,-0.5115 -0.48,-0.2749 -1.06,0.5259 -0.58,0.8006 -1.3,1.2029 -1.61,0.894 -0.31,-0.309 -0.17,-0.5618 0.31,-0.5618 0.48,0 0.87,-0.5066 0.87,-1.1259 0,-1.4567 -1.41,-1.4597 -1.96,-0.004 -0.24,0.6168 -0.74,0.9313 -1.11,0.6987 -0.37,-0.2326 -0.48,-0.7373 -0.25,-1.1221 0.24,-0.384 0.09,-0.698 -0.32,-0.698 -0.4,0 -0.95,0.343 -1.21,0.763 -0.25,0.4192 -0.81,0.5459 -1.24,0.2811 -0.5,-0.3101 -0.41,-0.7111 0.24,-1.1271 0.82,-0.525 0.8,-0.642 -0.11,-0.63 -1.41,0.019 -5.18,2.1515 -3.86,2.1874 0.53,0.0147 0.79,0.3329 0.56,0.7072 -0.23,0.3743 0.33,0.522 1.26,0.3283 l 1.67,-0.3524 -1.71,1.0337 -1.72,1.0338 2.07,0.95 c 1.49,0.6854 2.14,0.7154 2.34,0.1079 0.21,-0.6078 0.58,-0.5908 1.36,0.0611 0.87,0.7281 0.89,1.0232 0.12,1.5211 -0.63,0.4023 -0.19,0.6177 1.26,0.6177 1.74,0 1.99,-0.1666 1.12,-0.7526 z m -2.82,-2.6809 c -1.06,-1.1604 -0.35,-1.3824 1.22,-0.3789 0.56,0.355 0.73,0.8209 0.38,1.0357 -0.35,0.2147 -1.07,-0.0809 -1.6,-0.6568 z m 29.219999,-0.184 c -0.42,-0.4452 -1.83,0.6831 -1.83,1.4626 0,0.4047 0.47,0.3003 1.04,-0.232 0.57,-0.5323 0.93,-1.086 0.79,-1.2306 z m -21.189999,1.0937 c 0,-0.1623 -0.52,-0.4962 -1.15,-0.742 -0.67,-0.2563 -0.96,-0.1305 -0.7,0.295 0.43,0.7132 1.85,1.0549 1.85,0.447 z m -11.33,-7.616 c 0.65,-0.565 0.28,-0.766 -1.33,-0.727 -1.22,0.03 -2.81,0.708 -3.53,1.506 -1.28,1.423 -1.27,1.425 0.3,0.115 1.66,-1.391 3.02,-0.619 2.11,1.2 -0.26,0.516 -0.01,0.431 0.55,-0.188 0.56,-0.619 1.42,-1.477 1.9,-1.906 z m 6.12,1.111 c 0,-0.437 -0.33,-0.586 -0.74,-0.331 -0.41,0.255 -0.75,0.613 -0.75,0.795 0,0.182 0.34,0.331 0.75,0.331 0.41,0 0.74,-0.358 0.74,-0.795 z m -3.92,-5.73 c -0.73,-0.19 -1.73,-0.177 -2.24,0.028 -0.5,0.206 0.09,0.361 1.32,0.346 1.23,-0.015 1.64,-0.183 0.92,-0.374 z m 5.8,-0.836 c -0.23,-0.231 -0.83,0 -1.33,0.513 -0.73,0.741 -0.65,0.827 0.41,0.42 0.74,-0.282 1.15,-0.702 0.92,-0.933 z m 8.54,-0.94 c 0,-0.388 -0.28,-0.706 -0.62,-0.706 -0.34,0 -0.62,0.492 -0.62,1.093 0,0.601 0.28,0.919 0.62,0.706 0.34,-0.212 0.62,-0.704 0.62,-1.093 z m -2.98,-1.472 c -0.45,-0.834 -0.56,-1.932 -0.26,-2.439 0.35,-0.581 0.08,-0.536 -0.73,0.123 -1.2,0.98 -1.2,1.133 -0.02,2.439 1.63,1.816 2.01,1.769 1.01,-0.123 z m -3.78,0.496 c -0.17,-0.148 -1.31,-0.496 -2.54,-0.773 -1.63,-0.368 -1.94,-0.298 -1.12,0.258 1.01,0.686 4.41,1.165 3.66,0.515 z m -6.64,-2.05 c 1,-0.708 1,-0.76 0,-0.466 -0.61,0.182 -1.78,-0.016 -2.6,-0.441 -1.33,-0.69 -1.38,-0.639 -0.47,0.477 1.19,1.454 1.56,1.506 3.07,0.43 z m 3.73,-1.034 c 0,-0.697 -0.44,-0.935 -1.18,-0.646 -0.95,0.367 -0.99,0.58 -0.19,1.091 1.32,0.845 1.37,0.831 1.37,-0.445 z m 19.65,-0.399 c 2.919999,0 -0.07,-1.646 -3.3,-1.812 -1.94,-0.1 -3.5,-0.645 -4.06,-1.427 -1.33,-1.829 -1.87,-1.563 -1.87,0.917 0,1.789 0.26,2.113 1.44,1.801 0.79,-0.209 2.2,0.157 3.13,0.814 1.12,0.789 1.95,0.942 2.43,0.451 0.41,-0.409 1.41,-0.744 2.23,-0.744 z m -16.68,0 c 0,-0.413 -0.35,-0.751 -0.79,-0.751 -0.43,0 -0.58,0.338 -0.32,0.751 0.25,0.413 0.6,0.751 0.78,0.751 0.19,0 0.33,-0.338 0.33,-0.751 z m 20.239999,-7.268 c -0.53,-0.217 -1.179999,-0.19 -1.419999,0.059 -0.25,0.25 0.19,0.427 0.969999,0.394 0.87,-0.035 1.05,-0.213 0.45,-0.453 z m 19.74,164.41 c -0.8,-0.8 0.22,-1.77 1.85,-1.77 1.28,0 1.38,0.18 0.61,1.12 -1,1.22 -1.71,1.41 -2.46,0.65 z m -79.809999,-18.26 c -2.04,-2.41 -3.85,-4.24 -4.02,-4.09 -0.16,0.16 -1.09,-0.8 -2.07,-2.12 -1.8,-2.47 -4.31,-4.25 -6.05,-4.3 -0.53,-0.01 -0.77,0.3 -0.53,0.7 0.26,0.43 -0.46,0.4 -1.8,-0.07 -1.74,-0.61 -2.75,-1.88 -4.58,-5.786 -3.77,-8.043 -3.81,-8.241 -2.08,-9.174 0.87,-0.468 1.34,-1.281 1.11,-1.89 -0.22,-0.587 -0.08,-1.068 0.32,-1.068 0.39,0 0.72,-0.528 0.72,-1.173 0,-0.786 0.55,-1.096 1.67,-0.938 1.17,0.163 1.68,-0.152 1.69,-1.026 0,-0.693 0.25,-1.51 0.56,-1.814 0.3,-0.304 0.55,-0.186 0.55,0.263 0,0.448 1,1.038 2.23,1.31 1.23,0.272 2.23,0.92 2.23,1.441 0,0.52 0.92,1.411 2.05,1.98 1.13,0.569 2.23,1.136 2.46,1.259 0.22,0.124 0.27,-0.963 0.1,-2.415 -0.37,-3.235 1.03,-3.552 1.72,-0.388 0.27,1.238 0.77,2.252 1.12,2.252 0.34,0 1.04,1.266 1.54,2.814 0.5,1.548 1.62,3.543 2.48,4.433 2.24,2.319 3.42,3.868 3.42,4.484 0,0.294 0.53,1.126 1.18,1.846 1.56,1.74 1.93,7.37 0.61,9.28 -0.58,0.82 -1.04,2.09 -1.04,2.82 0,0.78 -0.77,1.51 -1.9,1.8 -1.88,0.47 -1.88,0.49 -0.37,1.55 1.49,1.06 2.08,2.55 0.96,2.45 -0.3,-0.03 -2.23,-2.02 -4.28,-4.43 z m 5.84,-11.69 c -0.24,-0.64 -0.6,-1 -0.79,-0.8 -0.2,0.19 -0.14,0.71 0.13,1.16 0.74,1.19 1.17,0.96 0.66,-0.36 z m 6.86,14.73 c -0.44,-0.72 5.27,-3.81 7.08,-3.83 0.9,-0.01 0.89,-0.13 -0.05,-0.74 -0.88,-0.57 -0.9,-0.73 -0.09,-0.74 0.74,0 0.9,-0.63 0.58,-2.26 -0.26,-1.27 -0.13,-2.25 0.27,-2.25 0.4,0 0.73,0.34 0.73,0.75 0,0.41 0.7,1.46 1.56,2.32 l 1.56,1.57 -1.75,1.24 c -0.96,0.68 -1.91,1.24 -2.11,1.24 -0.21,0.01 -1.43,0.77 -2.72,1.7 -2.47,1.77 -4.36,2.15 -5.06,1 z m 7.18,-18.228 c -0.49,-0.495 -0.89,-1.171 -0.89,-1.501 0,-1.106 1.12,-0.616 2.06,0.9 1.02,1.649 0.25,2.039 -1.17,0.601 z m 117.109999,-0.788 c 0.29,-0.929 0.84,-5.404 1.22,-9.946 0.4,-4.888 1.15,-9.114 1.84,-10.359 0.98,-1.771 1.02,-2.687 0.28,-5.796 -0.48,-2.053 -0.65,-5.034 -0.37,-6.716 0.46,-2.729 0.36,-3.024 -1.05,-3.024 -0.88,0 -1.55,-0.485 -1.55,-1.126 0,-1.419 -1.43,-1.407 -3.31,0.027 -0.8,0.608 -2.04,0.917 -2.76,0.686 -0.73,-0.232 -1.97,-0.072 -2.76,0.355 -1.86,1.008 -5.07,-1.418 -6.53,-4.944 -0.57,-1.374 -1.45,-2.415 -1.96,-2.313 -0.66,0.132 -0.92,-1.241 -0.92,-4.81 0,-2.747 0.26,-4.831 0.59,-4.63 0.32,0.201 0.51,-0.761 0.43,-2.136 -0.09,-1.376 0.48,-3.683 1.26,-5.128 0.79,-1.445 1.43,-3.134 1.44,-3.753 0,-0.619 0.34,-1.079 0.75,-1.021 1.02,0.145 5.02,-2.796 4.51,-3.316 -0.23,-0.231 0.13,-1.039 0.81,-1.795 0.68,-0.755 0.98,-1.374 0.66,-1.374 -0.32,0 -0.12,-0.591 0.44,-1.313 0.93,-1.191 0.9,-1.217 -0.28,-0.284 -0.72,0.567 -1.35,0.82 -1.4,0.563 -0.05,-0.257 -0.14,-0.889 -0.2,-1.405 -0.06,-0.516 -0.74,-0.828 -1.5,-0.693 -1.24,0.217 -1.33,-0.081 -0.85,-2.627 0.3,-1.58 0.52,-3.667 0.48,-4.637 -0.1,-2.748 0.58,-3.202 2.95,-1.967 2.04,1.064 2.19,1.048 2.19,-0.232 0,-0.756 -0.83,-2.519 -1.86,-3.918 -2.21,-3.0272 -2.22,-3.0704 -0.56,-2.5423 1.18,0.3738 1.19,0.3181 0.12,-0.5864 -1.29,-1.084 -1.38,-1.29 -1.5,-3.8143 -0.07,-1.2709 -0.18,-1.3637 -0.43,-0.3753 -0.19,0.7225 -0.78,1.3136 -1.32,1.3136 -1.37,0 -2.02,-2.9978 -0.76,-3.4858 0.55,-0.2152 0.83,-0.87402 0.6,-1.4637 -0.3,-0.77872 -0.04,-0.9315 0.92,-0.55822 1.04,0.4032 1.22,0.2347 0.84,-0.78098 -0.31,-0.8163 -0.2,-1.114 0.29,-0.805 0.43,0.2696 0.6,0.9855 0.37,1.5908 -0.23,0.60528 0.41,2.5936 1.42,4.4184 1.01,1.8248 1.67,3.913 1.46,4.6406 -0.21,0.7516 -0.01,0.6152 0.48,-0.3158 0.71,-1.3545 0.57,-2.1096 -0.8,-4.3555 -0.92,-1.4941 -1.52,-2.8628 -1.35,-3.0412 0.44,-0.44212 4.78,5.8408 5.41,7.8187 0.27,0.8755 0.74,1.5914 1.04,1.5914 1.14,0 9.04,17.721 9.04,20.279 0,0.658 -0.55,0.436 -1.52,-0.622 -1.37,-1.475 -2.95,-2.18 -2.95,-1.31 0,0.517 3.09,5.672 3.4,5.672 0.15,0 0.06,-0.553 -0.19,-1.23 -0.39,-1.01 -0.23,-1.092 0.9,-0.459 0.75,0.425 1.43,1.401 1.51,2.169 0.08,0.768 0.36,2.41 0.62,3.649 0.26,1.238 0.96,5.707 1.56,9.931 1.18,8.301 0.6,19.006 -1.54,28.503 -0.58,2.562 -1.05,5.771 -1.05,7.131 -0.01,4.14 -1.46,8.236 -3.07,8.66 -0.81,0.213 -2.3,2.032 -3.31,4.043 -1.91,3.803 -3.13,4.893 -2.18,1.967 z m 4.97,-72.032 c -0.53,-0.539 -0.88,-0.583 -0.88,-0.113 0,1.002 0.88,1.89 1.38,1.389 0.21,-0.213 -0.01,-0.788 -0.5,-1.276 z m -1.96,-0.025 c -0.62,-2.862 -3.17,-7.304 -4.19,-7.311 -1.36,-0.009 -3.25,3.126 -2.76,4.593 0.18,0.548 0.97,1.03 1.76,1.072 3.87,0.204 4.78,0.377 4.7,0.895 -0.14,0.869 0.05,1.689 0.39,1.689 0.17,0 0.21,-0.422 0.1,-0.938 z m -104.629999,68.804 c 0,-0.653 0.39,-1.054 0.88,-0.891 1.38,0.464 1.61,2.08 0.29,2.08 -0.64,0 -1.17,-0.535 -1.17,-1.189 z m 2.61,-1.051 c -0.26,-0.419 0.05,-0.763 0.69,-0.763 1.31,0 1.5,0.451 0.47,1.094 -0.38,0.238 -0.9,0.089 -1.16,-0.331 z m -15.58,-1.996 c -0.62,-1.638 0.2,-2.399 1.08,-0.997 0.88,1.404 0.9,2.23 0.05,2.23 -0.36,0 -0.87,-0.555 -1.13,-1.233 z m -6.39,-7.75 c 0,-0.4 -0.5,-0.533 -1.12,-0.295 -1.35,0.525 -1.48,-0.742 -0.17,-1.832 0.69,-0.582 1.16,-0.314 1.79,1.034 0.46,1.001 0.54,1.82 0.17,1.82 -0.37,0 -0.67,-0.327 -0.67,-0.727 z m -14.53,-0.966 c -0.81,-0.45 -1.91,-1.436 -2.45,-2.19 -1.04,-1.46 -3.12,-1.875 -3.12,-0.621 0,0.413 -0.67,0.751 -1.49,0.751 -0.82,0 -1.49,-0.338 -1.49,-0.751 0,-0.413 -0.67,-0.75 -1.49,-0.75 -0.82,0 -1.49,-0.338 -1.49,-0.751 0,-0.413 0.34,-0.751 0.75,-0.751 1.47,0 -1.02,-2.856 -3.56,-4.075 -1.69,-0.814 -2.4,-1.592 -2.12,-2.327 0.25,-0.656 -0.02,-1.103 -0.65,-1.103 -0.65,0 -0.9,0.446 -0.64,1.125 0.31,0.82 -0.09,1.126 -1.47,1.126 -1.04,0 -2.1,-0.337 -2.36,-0.75 -0.25,-0.413 0.23,-0.751 1.07,-0.751 0.85,0 1.58,-0.338 1.63,-0.75 0.05,-0.413 0.14,-1.061 0.19,-1.439 0.15,-1.116 1.21,-1.898 1.21,-0.894 0,0.506 0.29,0.735 0.66,0.509 0.36,-0.227 1.07,0.091 1.58,0.706 0.5,0.615 0.64,1.118 0.3,1.118 -0.33,0 -0.22,0.391 0.25,0.868 0.66,0.659 1.13,0.648 1.96,-0.042 0.87,-0.732 1.8,-0.544 4.73,0.949 2,1.023 4.08,2.393 4.61,3.045 0.54,0.651 1.9,1.184 3.03,1.184 2.07,0 4.12,-1.597 3.22,-2.508 -0.27,-0.272 -0.12,-0.494 0.33,-0.494 1.59,0 1.72,1.496 0.27,3.064 -0.98,1.061 -1.95,1.425 -2.95,1.105 -2.6,-0.833 -2.76,1.182 -0.27,3.429 2.44,2.194 2.29,3.377 -0.24,1.968 z m 8.86,-2.198 c -0.35,-0.565 -0.13,-0.713 0.62,-0.424 0.63,0.245 1.48,0.104 1.9,-0.313 0.5,-0.509 0.91,-0.49 1.25,0.059 0.27,0.449 0.39,0.841 0.27,0.872 -2.36,0.572 -3.61,0.513 -4.04,-0.194 z m -33.52,-2.23 c -0.35,-0.575 -1.55,-1.629 -2.66,-2.341 -2.85,-1.825 -3.91,-4.003 -2.27,-4.638 0.7,-0.27 1.02,-0.246 0.73,0.051 -0.75,0.76 1.73,3.36 2.66,2.782 0.43,-0.267 0.53,-0.105 0.24,0.371 -0.31,0.511 0.23,1.034 1.37,1.323 2.04,0.516 2.22,0.882 1.23,2.47 -0.55,0.869 -0.75,0.866 -1.3,-0.018 z m 2.42,-0.201 c 0.22,-0.588 0.92,-1.267 1.55,-1.51 0.82,-0.317 1.01,-0.103 0.68,0.754 -0.25,0.658 -0.45,1.337 -0.45,1.51 0,0.172 -0.49,0.314 -1.09,0.314 -0.64,0 -0.93,-0.444 -0.69,-1.068 z m 28.58,-0.434 c -1,-1.891 -0.16,-1.891 2.23,0 1.85,1.453 1.85,1.468 0.22,1.485 -0.91,0.009 -2.01,-0.659 -2.45,-1.485 z m -23.82,-0.33 c 0,-0.183 0.33,-0.54 0.74,-0.795 0.41,-0.256 0.75,-0.107 0.75,0.331 0,0.437 -0.34,0.794 -0.75,0.794 -0.41,0 -0.74,-0.148 -0.74,-0.33 z m 2.66,-1.07 c -0.32,-0.523 -0.38,-1.154 -0.13,-1.402 0.66,-0.671 1.39,0.317 1.03,1.405 -0.25,0.763 -0.43,0.762 -0.9,-0.003 z m -10.35,-2.842 c -0.27,-0.281 -0.54,-2.059 -0.59,-3.952 -0.07,-2.896 -0.16,-3.091 -0.56,-1.231 -0.26,1.216 -0.72,2.144 -1.03,2.065 -0.3,-0.08 -0.85,-0.145 -1.22,-0.145 -1.51,0 -1.59,-5.128 -0.14,-8.74 1.43,-3.551 1.63,-3.494 1.92,0.559 0.22,2.881 1.08,3.86 3.07,3.476 1.16,-0.224 1.77,0.009 1.77,0.68 0,0.562 -0.75,1.044 -1.68,1.07 l -1.67,0.047 1.67,0.679 c 0.93,0.373 1.67,1.112 1.67,1.641 -0.01,0.741 -0.16,0.728 -0.65,-0.056 -0.36,-0.56 -0.83,-0.712 -1.06,-0.339 -0.23,0.373 -0.11,1.169 0.27,1.769 0.37,0.6 0.66,1.597 0.64,2.216 -0.04,0.882 -0.14,0.904 -0.46,0.103 -0.28,-0.721 -0.55,-0.773 -0.92,-0.177 -0.28,0.466 -0.75,0.617 -1.03,0.335 z m 74.07,-2.513 c 0.37,-1.133 1.57,-1.25 1.92,-0.188 0.17,0.517 -0.25,0.939 -0.93,0.939 -0.68,0 -1.13,-0.338 -0.99,-0.751 z m -62.6,-1.063 c -0.03,-0.791 0.14,-1.235 0.39,-0.985 0.25,0.249 0.27,0.896 0.06,1.438 -0.24,0.599 -0.42,0.421 -0.45,-0.453 z m -18.35,-4.379 c -0.8499998,-7.034 -0.8699998,-7.355 -0.3,-7.71 0.29,-0.181 0.76,1.775 1.04,4.347 0.29,2.572 0.7,5.437 0.92,6.366 0.23,0.929 0.07,1.689 -0.34,1.689 -0.41,0 -1.01,-2.112 -1.32,-4.692 z m 11.53,4.504 c -0.56,-1.899 -0.54,-3.942 0.03,-4.938 0.56,-0.958 0.73,-0.501 0.75,1.936 0.01,1.754 -0.14,3.19 -0.35,3.19 -0.2,0 -0.4,-0.085 -0.43,-0.188 z m 33.56,-6.209 c 0,-0.628 -0.84,-1.526 -1.86,-1.997 -1.62,-0.744 -2.58,-2.115 -1.48,-2.115 0.69,0 3.7,1.858 4.26,2.627 0.79,1.089 0.69,2.627 -0.18,2.627 -0.4,0 -0.74,-0.514 -0.74,-1.142 z m -37.22,-4.862 c -0.54,-1.018 -0.55,-1.502 -0.03,-1.502 0.42,0 0.77,-0.526 0.77,-1.17 0,-0.643 0.34,-0.961 0.75,-0.706 0.95,0.595 0.97,4.879 0.02,4.879 -0.39,0 -1.08,-0.676 -1.51,-1.501 z m -3.71,-2.396 c 0,-0.54 0.33,-1.489 0.73,-2.108 0.59,-0.915 0.72,-0.818 0.73,0.519 0.01,0.904 -0.32,1.853 -0.73,2.108 -0.41,0.255 -0.74,0.022 -0.73,-0.519 z m -4.58,-2.296 c -0.2899998,-7.489 2.34,-24.659 3.87,-25.207 0.38,-0.138 0.69,-1.008 0.69,-1.935 0,-2.033 3.47,-10.927 4.8,-12.322 0.79,-0.826 1.04,-0.787 1.42,0.227 0.3,0.779 0.17,1.038 -0.35,0.714 -0.54,-0.336 -0.65,0.012 -0.33,1.028 0.32,1.03 0,1.993 -0.99,2.919 -1.57,1.472 -3.06,4.793 -3.06,6.809 0,1.02 0.18,0.981 1.1,-0.236 0.6,-0.802 1.1,-2.386 1.11,-3.522 0.02,-1.135 0.36,-2.064 0.77,-2.064 1.35,0 0.78,5.145 -0.93,8.421 -1.43,2.752 -1.71,2.971 -1.91,1.525 -0.13,-0.929 -0.51,-1.689 -0.85,-1.689 -1.45,0 -2.16,9.269 -0.78,10.133 1.24,0.772 0.91,3.602 -0.36,3.11 -1.64,-0.634 -2.4,1.538 -2.46,7.023 -0.09,7.412 -0.1,7.506 -0.9,7.506 -0.41,0 -0.79,-1.098 -0.84,-2.44 z m 6.97,-0.119 c 0.23,-1.206 0.04,-1.692 -0.56,-1.46 -1.18,0.457 -2.2,-5.678 -1.13,-6.761 0.53,-0.539 0.77,-0.108 0.77,1.394 0,1.329 0.77,2.981 1.98,4.251 1.65,1.736 1.82,2.268 1.02,3.231 -1.42,1.724 -2.47,1.392 -2.08,-0.655 z m 87.529999,-12.603 c 0.69,-0.701 1.09,-0.701 1.78,0 0.7,0.7 0.5,0.9 -0.89,0.9 -1.39,0 -1.59,-0.2 -0.89,-0.9 z m 4.61,0.107 c 0,-0.477 0.48,-0.685 1.06,-0.46 0.58,0.224 1.25,-0.099 1.48,-0.718 0.26,-0.682 0.8,-0.894 1.37,-0.539 0.51,0.323 1.65,0.494 2.54,0.379 0.88,-0.115 1.82,0.149 2.09,0.586 0.27,0.443 -0.11,0.816 -0.86,0.842 -0.74,0.025 -2.77,0.211 -4.51,0.412 -2.11,0.244 -3.17,0.077 -3.17,-0.502 z m 10.28,-0.107 c 0.69,-0.701 1.09,-0.701 1.78,0 0.7,0.7 0.5,0.9 -0.89,0.9 -1.39,0 -1.59,-0.2 -0.89,-0.9 z m -17.18,-4.042 c -1.14,-0.621 -2.439999,-0.893 -2.909999,-0.604 -0.51,0.321 -0.63,0.188 -0.31,-0.342 0.34,-0.551 -0.04,-0.867 -1.04,-0.867 -0.87,0 -1.42,0.266 -1.22,0.59 0.2,0.324 -0.28,0.59 -1.07,0.59 -1.98,0 -1.8,-1.045 0.36,-2.035 1.44,-0.664 2.66,-0.481 6.319999,0.951 4.46,1.743 5.8,2.936 3.24,2.876 -0.72,-0.016 -2.24,-0.538 -3.37,-1.159 z m 66.46,-10.025 c 0,-0.437 0.34,-0.795 0.75,-0.795 0.41,0 0.74,0.149 0.74,0.331 0,0.182 -0.33,0.54 -0.74,0.795 -0.41,0.255 -0.75,0.106 -0.75,-0.331 z m 1.49,-13.886 c 0,-0.182 0.34,-0.54 0.75,-0.795 0.4,-0.255 0.74,-0.106 0.74,0.331 0,0.437 -0.34,0.795 -0.74,0.795 -0.41,0 -0.75,-0.149 -0.75,-0.331 z m -147.409999,-3.709 c 0,-0.6189 0.34,-1.3343 0.75,-1.5894 0.41,-0.2552 0.74,0.0427 0.74,0.6619 0,0.6195 -0.33,1.3345 -0.74,1.5895 -0.41,0.255 -0.75,-0.042 -0.75,-0.662 z m 2.98,-0.044 c 0,-0.182 0.34,-0.54 0.75,-0.7949 0.41,-0.2551 0.74,-0.1061 0.74,0.3309 0,0.437 -0.33,0.795 -0.74,0.795 -0.41,0 -0.75,-0.149 -0.75,-0.331 z m 4.47,-4.1282 c 0,-0.4372 0.33,-0.7949 0.74,-0.7949 0.41,0 0.75,0.1489 0.75,0.331 0,0.182 -0.34,0.5398 -0.75,0.7948 -0.41,0.2552 -0.74,0.1063 -0.74,-0.3309 z m 1.1,-6.8272 c -0.25,-0.4112 -0.86,-0.5083 -1.34,-0.2159 -0.5,0.3028 -0.44,-0.0149 0.14,-0.73838 1.07,-1.3206 3.46,-1.7121 4.1,-0.6696 0.2,0.3302 -0.26,0.9988 -1.04,1.4858 -0.91,0.57198 -1.57,0.62088 -1.86,0.13808 z m 98.429999,-10.567 c -0.74,-0.435 -1.85,-0.597 -2.46,-0.361 -0.63,0.243 -0.91,0.107 -0.66,-0.312 0.25,-0.409 0.05,-0.742 -0.45,-0.742 -1.65,0 0.03,-0.994 2.05,-1.211 2.32,-0.249 6.46,1.703 5.82,2.744 -0.57,0.9353 -2.6,0.8798 -4.3,-0.118 z"
       inkscape:export-ydpi="10.850266"
       inkscape:export-filename="/home/ben/Documents/programmation/javascript/google_map/images/carte.png"
       inkscape:export-xdpi="10.850266"
       inkscape:connector-curvature="0" />
  </g>
  <metadata
     id="metadata345">
    <rdf:RDF>
      <cc:Work>
        <dc:format>image/svg+xml</dc:format>
        <dc:type
           rdf:resource="http://purl.org/dc/dcmitype/StillImage" />
        <cc:license
           rdf:resource="http://creativecommons.org/publicdomain/zero/1.0/" />
        <dc:publisher>
          <cc:Agent
             rdf:about="http://openclipart.org/">
            <dc:title>Openclipart</dc:title>
          </cc:Agent>
        </dc:publisher>
        <dc:title></dc:title>
        <dc:date>2009-10-04T14:38:58</dc:date>
        <dc:description />
        <dc:source>https://openclipart.org/detail/27674/map-geolocalisation-icon-set-by-ben</dc:source>
        <dc:creator>
          <cc:Agent>
            <dc:title>ben</dc:title>
          </cc:Agent>
        </dc:creator>
        <dc:subject>
          <rdf:Bag>
            <rdf:li>geolocalisation</rdf:li>
            <rdf:li>greyscale</rdf:li>
            <rdf:li>icon</rdf:li>
            <rdf:li>magnifier</rdf:li>
            <rdf:li>map</rdf:li>
            <rdf:li>position</rdf:li>
            <rdf:li>satellite</rdf:li>
          </rdf:Bag>
        </dc:subject>
      </cc:Work>
      <cc:License
         rdf:about="http://creativecommons.org/licenses/publicdomain/">
        <cc:permits
           rdf:resource="http://creativecommons.org/ns#Reproduction" />
        <cc:permits
           rdf:resource="http://creativecommons.org/ns#Distribution" />
        <cc:permits
           rdf:resource="http://creativecommons.org/ns#DerivativeWorks" />
      </cc:License>
    </rdf:RDF>
  </metadata>
</svg>
